<?xml version="1.0" standalone="no"?><!DOCTYPE svg PUBLIC "-//W3C//DTD SVG 1.1//EN" "http://www.w3.org/Graphics/SVG/1.1/DTD/svg11.dtd"><svg width="100%" height="100%" viewBox="0 0 292 100" version="1.1" xmlns="http://www.w3.org/2000/svg" xmlns:xlink="http://www.w3.org/1999/xlink" xml:space="preserve" style="fill-rule:evenodd;clip-rule:evenodd;stroke-linejoin:round;stroke-miterlimit:1.41421;"><g id="Ta"><path d="M96.166,4l-92.166,0l0,92.035l92.166,0l0,-92.035ZM94,6l-88,0l0,88l88,0l0,-88Z" style="fill:#08f;"/><text x="10.665px" y="20.28px" style="font-family:Arial;font-size:14.261px;font-weight:700;fill:#08f;">73</text><text x="20.78px" y="64.276px" style="font-family:Arial;font-size:51.343px;fill:#08f;">T<tspan x="46.451px " y="64.276px ">a</tspan></text><text x="27.749px" y="77.504px" style="font-family:Arial;font-size:11.687px;fill:#08f;">T<tspan x="33.592px 40.092px " y="77.504px 77.504px ">an</tspan>talum</text><text x="56.468px" y="16.539px" style="font-family:Arial;font-size:9.028px;fill:#08f;">180.947</text></g><g id="Ta1"><path d="M192.166,4l-92.166,0l0,92.035l92.166,0l0,-92.035ZM190,6l-88,0l0,88l88,0l0,-88Z" style="fill:#9e9e9e;"/><text x="106.665px" y="20.28px" style="font-family:Arial;font-size:14.261px;font-weight:700;fill:#9e9e9e;">5</text><text x="129.78px" y="64.276px" style="font-family:Arial;font-size:51.343px;fill:#9e9e9e;">B</text><text x="130.807px" y="77.504px" style="font-family:Arial;font-size:11.687px;fill:#9e9e9e;">Boron</text><text x="159.468px" y="16.539px" style="font-family:Arial;font-size:9.028px;fill:#9e9e9e;">10.81<tspan x="181.391px " y="16.539px ">1</tspan></text></g><g id="Ta2"><path d="M288.166,4l-92.166,0l0,92.035l92.166,0l0,-92.035ZM286,6l-88,0l0,88l88,0l0,-88Z" style="fill:#9e9e9e;"/><text x="202.665px" y="20.28px" style="font-family:Arial;font-size:14.261px;font-weight:700;fill:#9e9e9e;">103</text><text x="218.78px" y="64.276px" style="font-family:Arial;font-size:51.343px;fill:#9e9e9e;">Lr</text><text x="210.807px" y="77.504px" style="font-family:Arial;font-size:11.687px;fill:#9e9e9e;">Lawrencium</text><text x="248.896px" y="16.539px" style="font-family:Arial;font-size:9.028px;fill:#9e9e9e;">262.000</text></g></svg>